<svg xmlns="http://www.w3.org/2000/svg" viewBox="0 0 640 360" font-family="Helvetica, Arial, sans-serif">
  <rect width="640" height="360" fill="#f4f5f7"/>
  <text x="24" y="38" font-size="20" font-weight="700" fill="#1d232b">Steckdosen und Leistungsanzeige (Demo-Skizze)</text>
  <rect x="24" y="60" width="592" height="260" rx="14" fill="#fff" stroke="#9aa3ad" stroke-width="2"/>
  <g fill="#e9ecef" stroke="#1d232b" stroke-width="3">
    <circle cx="110" cy="160" r="44"/><circle cx="230" cy="160" r="44"/><circle cx="350" cy="160" r="52"/>
  </g>
  <g fill="#1d232b"><circle cx="96" cy="160" r="6"/><circle cx="124" cy="160" r="6"/><circle cx="216" cy="160" r="6"/><circle cx="244" cy="160" r="6"/>
    <circle cx="330" cy="150" r="6"/><circle cx="370" cy="150" r="6"/><circle cx="350" cy="180" r="6"/></g>
  <text x="170" y="240" font-size="16" font-weight="700" text-anchor="middle" fill="#1d232b">230 V (T13/T23)</text>
  <text x="350" y="240" font-size="16" font-weight="700" text-anchor="middle" fill="#1d232b">CEE 400 V</text>
  <rect x="450" y="110" width="140" height="100" rx="8" fill="#1d232b"/>
  <rect x="466" y="170" width="108" height="16" rx="3" fill="#3a4450"/>
  <rect x="466" y="170" width="70" height="16" rx="3" fill="#2e7d32"/>
  <text x="520" y="150" font-size="22" font-weight="700" text-anchor="middle" fill="#fff">5.2 kW</text>
  <text x="520" y="240" font-size="16" font-weight="700" text-anchor="middle" fill="#1d232b">Leistung</text>
  <text x="320" y="296" font-size="13" text-anchor="middle" fill="#5b6570">Grün = Reserve vorhanden. Synthetische Skizze, keine Herstellerangabe.</text>
</svg>
