<svg xmlns="http://www.w3.org/2000/svg" width="512" height="512" viewBox="0 0 512 512">
  <defs><radialGradient id="bg" cx="50%" cy="36%" r="80%">
    <stop offset="0%" stop-color="#26344a"/><stop offset="58%" stop-color="#1b2330"/><stop offset="100%" stop-color="#141a24"/>
  </radialGradient></defs>
  <rect width="512" height="512" rx="114" fill="url(#bg)"/>
  <g transform="translate(256 256) scale(1.06) translate(-256 -262)">
    <text x="256" y="176" font-family="Avenir Next" font-weight="800" font-size="132" text-anchor="middle" fill="#fff">kp</text>
    <text x="256" y="262" font-family="Avenir Next" font-weight="600" font-size="68" letter-spacing="6" text-anchor="middle" fill="#e8392b">front</text>
    <g transform="translate(256 366) scale(0.56) translate(-256 -268)">
      <ellipse cx="256" cy="398" rx="150" ry="19" fill="#000" opacity="0.22"/>
      <g stroke="#c4cedb" stroke-width="3" stroke-linejoin="round">
        <polygon points="100,216 198,190 198,380 100,406" fill="#e7edf4"/>
        <polygon points="208,190 306,216 306,406 208,380" fill="#ffffff"/>
        <polygon points="316,216 414,190 414,380 316,406" fill="#d8e1ec"/>
      </g>
      <path fill="#e8392b" d="M256 350 C221 297 186 260 186 206 A70 70 0 1 1 326 206 C326 260 291 297 256 350 Z"/>
      <circle cx="256" cy="200" r="30" fill="#fff"/>
    </g>
  </g>
</svg>
